HIERARCHY
ROOT hip
{
	OFFSET 0.000000 0.000000 0.000000 
	CHANNELS 6 Xposition Yposition Zposition Xrotation Zrotation Yrotation
	JOINT abdomen
	{
		OFFSET 0.000000 3.402643 0.000000 
		CHANNELS 3 Xrotation Zrotation Yrotation
		JOINT chest
		{
			OFFSET 0.000000 8.438565 -0.680529 
			CHANNELS 3 Xrotation Zrotation Yrotation
			JOINT neck
			{
				OFFSET 0.000000 10.207942 -0.272212 
				CHANNELS 3 Xrotation Zrotation Yrotation
				JOINT head
				{
					OFFSET 0.000000 3.130431 0.000000 
					CHANNELS 3 Xrotation Zrotation Yrotation
					End Site
					{
						OFFSET 0.000000 3.130435 0.000000 
					}
				}
			}
			JOINT lCollar
			{
				OFFSET 3.470700 6.669187 -0.816635 
				CHANNELS 3 Yrotation Zrotation Xrotation
				JOINT lShldr
				{
					OFFSET 3.198488 0.000000 0.000000 
					CHANNELS 3 Zrotation Yrotation Xrotation
					JOINT lForeArm
					{
						OFFSET 10.139888 0.000000 0.000000 
						CHANNELS 3 Yrotation Zrotation Xrotation
						JOINT lHand
						{
							OFFSET 8.370511 0.000000 0.000000 
							CHANNELS 3 Zrotation Yrotation Xrotation
							End Site
							{
								OFFSET 4.083176 0.000000 0.000000 
							}
						}
					}
				}
			}
			JOINT rCollar
			{
				OFFSET -3.470700 6.669187 -0.816635 
				CHANNELS 3 Yrotation Zrotation Xrotation
				JOINT rShldr
				{
					OFFSET -3.198488 0.000000 0.000000 
					CHANNELS 3 Zrotation Yrotation Xrotation
					JOINT rForeArm
					{
						OFFSET -10.139888 0.000000 0.000000 
						CHANNELS 3 Yrotation Zrotation Xrotation
						JOINT rHand
						{
							OFFSET -8.370511 0.000000 0.000000 
							CHANNELS 3 Zrotation Yrotation Xrotation
							End Site
							{
								OFFSET -4.083176 0.000000 0.000000 
							}
						}
					}
				}
			}
		}
	}
	JOINT lThigh
	{
		OFFSET 5.308129 -1.633274 1.361059 
		CHANNELS 3 Xrotation Zrotation Yrotation
		JOINT lShin
		{
			OFFSET -2.041588 -20.007561 0.000000 
			CHANNELS 3 Xrotation Zrotation Yrotation
			JOINT lFoot
			{
				OFFSET 0.000000 -19.190928 -1.224953 
				CHANNELS 3 Xrotation Yrotation Zrotation
				End Site
				{
					OFFSET 0.000000 -2.449906 4.627600 
				}
			}
		}
	}
	JOINT rThigh
	{
		OFFSET -5.308129 -1.633274 1.361059 
		CHANNELS 3 Xrotation Zrotation Yrotation
		JOINT rShin
		{
			OFFSET 2.041588 -20.007561 0.000000 
			CHANNELS 3 Xrotation Zrotation Yrotation
			JOINT rFoot
			{
				OFFSET 0.000000 -19.190928 -1.224953 
				CHANNELS 3 Xrotation Yrotation Zrotation
				End Site
				{
					OFFSET 0.000000 -2.449906 4.627600 
				}
			}
		}
	}
}
MOTION
Frames: 11
Frame Time: 0.016667
-1.694689 36.657761 53.605259 7.103450 1.880000 -4.384710 -19.480499 -0.388751 1.048860 16.982100 0.808970 0.408455 11.872764 -3.871203 -45.844303 18.861744 -7.605051 13.464009 2.000000 -2.000000 0.000000 -86.053703 7.368610 169.895996 68.525902 -0.264899 0.127277 0.053062 -0.051315 -155.574005 -2.034810 1.958259 0.001060 -91.686897 -168.875000 0.909242 -57.842300 0.287617 0.115747 -0.060176 0.042661 -152.341995 -3.959206 -8.096951 -2.571403 3.578525 1.031242 0.737301 4.200531 -1.944783 0.610102 -39.950844 -1.896757 -4.912160 88.277344 1.560940 -4.885198 -9.297501 6.824183 1.166942 
-1.807129 36.830086 54.160435 7.340110 2.334250 -4.162140 -19.619101 -0.377967 0.549309 16.600300 1.451610 0.143788 11.934209 -3.456824 -45.423790 18.673624 -7.297906 13.521872 2.000000 -2.000000 0.000000 -85.145500 7.349010 169.867004 66.846199 -0.268607 0.125756 0.051457 -0.046287 -153.688995 -2.034810 1.958259 0.001060 -92.018898 -168.897003 -0.213752 -56.904800 0.289501 0.114541 -0.071283 0.057021 -154.050995 -3.126319 -8.354598 -2.309190 2.144796 0.957904 0.554281 6.385680 -2.454522 0.930470 -42.970154 -1.796948 -5.111250 83.004532 1.139141 -4.843647 -11.965141 2.158066 0.522421 
-1.974064 36.956470 54.725159 7.515130 2.159050 -4.461170 -19.531000 -0.126139 0.386610 16.589701 1.880250 0.084546 11.721794 -3.002170 -45.307125 18.721010 -7.229057 13.507417 2.000000 -2.000000 0.000000 -84.373802 7.211560 169.554001 65.195801 -0.272205 0.124156 0.049843 -0.040548 -151.559998 -2.034810 1.958259 0.001060 -92.233803 -169.018005 -1.834550 -56.279800 0.290746 0.113720 -0.073463 0.053821 -156.520996 -2.603264 -8.092368 -1.508401 2.013285 1.201227 0.450704 7.919240 -2.427445 1.108670 -45.183640 -0.587470 -4.903906 75.858932 0.519975 -4.700346 -13.201857 0.113967 0.211925 
-2.122226 37.106663 55.399754 7.545410 2.342840 -4.465010 -19.433599 -0.164884 0.172063 16.647800 2.104470 -0.036245 11.446194 -2.361340 -45.476849 19.079029 -7.308445 13.535613 2.000000 -2.000000 0.000000 -84.002197 7.179770 168.490005 63.643101 -0.275547 0.122556 0.048402 -0.034567 -149.363007 -2.034810 1.958259 0.001060 -92.351196 -168.973007 -3.319040 -55.479000 0.292328 0.112648 -0.076161 0.060869 -159.216995 -1.250844 -8.607846 -0.966077 0.668171 2.014933 0.106476 8.830058 -2.895071 0.997450 -46.252331 -0.085798 -4.586301 67.991127 -0.140168 -4.471758 -14.158158 1.036560 0.470850 
-2.312371 37.199455 56.127140 7.458250 2.488560 -4.361710 -19.287201 -0.230218 -0.002187 16.793800 2.309470 -0.132194 11.317717 -1.860861 -44.778767 18.862692 -6.971316 13.480113 2.000000 -2.000000 0.000000 -83.699097 7.217120 167.757004 62.334499 -0.278328 0.121139 0.047929 -0.032347 -148.552994 -2.034810 1.958259 0.001060 -92.380501 -168.613998 -4.530880 -54.990700 0.293285 0.111983 -0.078809 0.066963 -161.589996 -0.698744 -8.687187 -0.642618 1.195693 2.102312 0.163438 10.364499 -3.514459 1.271435 -46.377090 0.314885 -4.508712 60.702690 -0.700355 -4.186297 -14.955394 0.614018 0.384839 
-2.554436 37.247650 56.916317 7.537840 2.720460 -4.102990 -19.013700 -0.271436 -0.195623 17.262100 2.651870 -0.240325 11.063886 -1.463182 -44.855343 19.208338 -7.022575 13.424724 2.000000 -2.000000 0.000000 -83.571999 7.079540 167.386993 61.348202 -0.280403 0.120028 0.048279 -0.034006 -149.158005 -2.034810 1.958259 0.001060 -92.517303 -168.451004 -5.556680 -54.805199 0.293647 0.111729 -0.080823 0.071184 -163.259995 0.057062 -8.717505 -0.482115 1.117815 2.111151 0.155117 8.363007 -3.072699 0.985233 -46.149212 0.656220 -4.227962 54.187977 -1.151714 -3.885804 -15.088050 -0.638482 0.062860 
-2.759813 37.319210 57.780193 7.521100 3.136900 -3.189130 -19.208700 -0.420443 -0.370510 17.076200 2.700100 -0.349523 10.469925 -0.630406 -44.726948 19.331020 -6.917888 13.281174 2.000000 -2.000000 0.000000 -83.699203 7.841740 167.589996 60.283699 -0.282621 0.118790 0.048721 -0.035981 -149.880997 -2.034810 1.958259 0.001060 -92.575600 -167.125000 -6.722110 -54.961399 0.293342 0.111943 -0.082677 0.074812 -164.714996 0.883414 -9.029819 -0.948484 1.084481 2.333102 0.114930 8.701622 -3.692840 1.013462 -45.278103 0.168177 -4.195707 48.503193 -1.535504 -3.580012 -14.535396 -0.479637 0.051889 
-2.994297 37.246529 58.715416 7.660810 3.494000 -2.655010 -19.032900 -0.532280 -0.446399 17.574800 2.701420 -0.394414 10.386938 -0.219693 -44.813519 19.647606 -6.838404 13.290442 2.000000 -2.000000 0.000000 -84.079903 7.684960 167.365997 58.926300 -0.285415 0.117152 0.048739 -0.036061 -149.910004 -2.034810 1.958259 0.001060 -92.478302 -167.244995 -7.688610 -54.023899 0.295163 0.110644 -0.084329 0.087632 -165.955002 1.710859 -9.284426 -1.073573 1.325735 2.529354 0.099319 8.223962 -3.827367 0.868091 -44.473698 0.033578 -3.454845 44.682968 -1.744419 -3.357403 -14.025793 0.434326 0.206922 
-3.277109 37.111046 59.615582 7.986790 3.839460 -2.274120 -19.209000 -0.541393 -0.359315 17.613899 2.691760 -0.353010 10.296738 -0.119757 -45.022751 19.708843 -6.940264 13.332526 2.000000 -2.000000 0.000000 -84.636597 7.841010 167.278000 57.314999 -0.288679 0.115121 0.048379 -0.034460 -149.324005 -2.034810 1.958259 0.001060 87.492599 -13.330200 171.811996 -53.525902 0.296122 0.109942 -0.086714 0.091781 -167.664001 2.334406 -9.448191 -1.036217 1.456217 2.625788 0.106779 8.214263 -3.765938 0.855688 -44.357815 0.179871 -2.509940 45.007557 -1.717728 -3.376847 -12.402064 -0.128206 0.109068 
-3.526881 37.010952 60.609322 8.108020 4.215410 -2.036210 -19.434099 -0.547070 -0.179718 17.487400 2.447660 -0.258035 10.335642 -0.122423 -45.222858 19.684061 -7.011283 13.398430 2.000000 -2.000000 0.000000 -85.320198 7.967730 167.179993 54.688000 -0.293876 0.111617 0.048040 -0.032883 -148.748001 -2.034810 1.958259 0.001060 87.619400 -13.504400 171.167007 -51.748501 0.299492 0.107368 -0.078209 0.093863 -168.533005 3.085679 -9.764897 -0.895691 1.886093 2.949445 0.109548 8.474417 -4.046408 0.799892 -44.178883 0.277632 -1.475826 47.571613 -1.563541 -3.532347 -14.152097 -0.510452 -0.083339 
-3.758129 37.048359 61.597336 8.200660 4.620440 -1.571010 -19.277500 -0.488517 -0.273896 17.643900 2.389490 -0.287452 10.806136 -0.364230 -45.769676 19.912735 -7.060244 13.623004 2.000000 -2.000000 0.000000 -86.744904 6.929500 165.854004 50.967300 -0.300949 0.106255 0.047622 -0.030819 -147.996002 -2.034810 1.958259 0.001060 87.315804 -12.195000 170.828003 -48.545399 0.305359 0.102470 -0.087361 0.092859 -168.113007 3.573513 -10.301230 -0.905295 2.785005 3.630814 0.122321 9.013103 -4.407432 0.660776 -43.685211 0.428783 -0.479552 48.671616 -1.493993 -3.595760 -14.196093 -2.577940 -0.661566 
